<mxfile host="app.diagrams.net" agent="Mozilla/5.0 (X11; Linux x86_64) AppleWebKit/537.36 (KHTML, like Gecko) Chrome/131.0.0.0 Safari/537.36" version="26.0.3">
  <diagram name="Page-1" id="xVHl1nn52YKyXcVKvUtL">
    <mxGraphModel dx="1137" dy="954" grid="1" gridSize="10" guides="1" tooltips="1" connect="1" arrows="1" fold="1" page="0" pageScale="1" pageWidth="850" pageHeight="1100" math="0" shadow="0">
      <root>
        <mxCell id="0" />
        <mxCell id="1" parent="0" />
        <mxCell id="oF5099-Gfeb-WDHTuqHn-8" value="" style="edgeStyle=none;curved=1;rounded=0;orthogonalLoop=1;jettySize=auto;html=1;fontSize=12;startSize=8;endSize=8;" edge="1" parent="1" source="oF5099-Gfeb-WDHTuqHn-1" target="oF5099-Gfeb-WDHTuqHn-7">
          <mxGeometry relative="1" as="geometry" />
        </mxCell>
        <mxCell id="oF5099-Gfeb-WDHTuqHn-10" value="" style="edgeStyle=none;curved=1;rounded=0;orthogonalLoop=1;jettySize=auto;html=1;fontSize=12;startSize=8;endSize=8;" edge="1" parent="1" source="oF5099-Gfeb-WDHTuqHn-1" target="oF5099-Gfeb-WDHTuqHn-9">
          <mxGeometry relative="1" as="geometry" />
        </mxCell>
        <mxCell id="oF5099-Gfeb-WDHTuqHn-12" value="" style="edgeStyle=none;curved=1;rounded=0;orthogonalLoop=1;jettySize=auto;html=1;fontSize=12;startSize=8;endSize=8;" edge="1" parent="1" source="oF5099-Gfeb-WDHTuqHn-1" target="oF5099-Gfeb-WDHTuqHn-11">
          <mxGeometry relative="1" as="geometry" />
        </mxCell>
        <mxCell id="oF5099-Gfeb-WDHTuqHn-1" value="Game engine" style="rounded=1;whiteSpace=wrap;html=1;" vertex="1" parent="1">
          <mxGeometry x="-40" y="-390" width="120" height="60" as="geometry" />
        </mxCell>
        <mxCell id="oF5099-Gfeb-WDHTuqHn-20" value="" style="edgeStyle=none;curved=1;rounded=0;orthogonalLoop=1;jettySize=auto;html=1;fontSize=12;startSize=8;endSize=8;" edge="1" parent="1" source="oF5099-Gfeb-WDHTuqHn-2" target="oF5099-Gfeb-WDHTuqHn-19">
          <mxGeometry relative="1" as="geometry" />
        </mxCell>
        <mxCell id="oF5099-Gfeb-WDHTuqHn-22" value="" style="edgeStyle=none;curved=1;rounded=0;orthogonalLoop=1;jettySize=auto;html=1;fontSize=12;startSize=8;endSize=8;" edge="1" parent="1" source="oF5099-Gfeb-WDHTuqHn-2" target="oF5099-Gfeb-WDHTuqHn-21">
          <mxGeometry relative="1" as="geometry" />
        </mxCell>
        <mxCell id="oF5099-Gfeb-WDHTuqHn-24" value="" style="edgeStyle=none;curved=1;rounded=0;orthogonalLoop=1;jettySize=auto;html=1;fontSize=12;startSize=8;endSize=8;" edge="1" parent="1" source="oF5099-Gfeb-WDHTuqHn-2" target="oF5099-Gfeb-WDHTuqHn-23">
          <mxGeometry relative="1" as="geometry" />
        </mxCell>
        <mxCell id="oF5099-Gfeb-WDHTuqHn-2" value="Network" style="rounded=1;whiteSpace=wrap;html=1;" vertex="1" parent="1">
          <mxGeometry x="-40" y="70" width="120" height="60" as="geometry" />
        </mxCell>
        <mxCell id="oF5099-Gfeb-WDHTuqHn-32" value="" style="edgeStyle=none;curved=1;rounded=0;orthogonalLoop=1;jettySize=auto;html=1;fontSize=12;startSize=8;endSize=8;" edge="1" parent="1" source="oF5099-Gfeb-WDHTuqHn-3" target="oF5099-Gfeb-WDHTuqHn-31">
          <mxGeometry relative="1" as="geometry" />
        </mxCell>
        <mxCell id="oF5099-Gfeb-WDHTuqHn-34" value="" style="edgeStyle=none;curved=1;rounded=0;orthogonalLoop=1;jettySize=auto;html=1;fontSize=12;startSize=8;endSize=8;" edge="1" parent="1" source="oF5099-Gfeb-WDHTuqHn-3" target="oF5099-Gfeb-WDHTuqHn-33">
          <mxGeometry relative="1" as="geometry" />
        </mxCell>
        <mxCell id="oF5099-Gfeb-WDHTuqHn-36" value="" style="edgeStyle=none;curved=1;rounded=0;orthogonalLoop=1;jettySize=auto;html=1;fontSize=12;startSize=8;endSize=8;" edge="1" parent="1" source="oF5099-Gfeb-WDHTuqHn-3" target="oF5099-Gfeb-WDHTuqHn-35">
          <mxGeometry relative="1" as="geometry" />
        </mxCell>
        <mxCell id="oF5099-Gfeb-WDHTuqHn-3" value="Rtype Game" style="rounded=1;whiteSpace=wrap;html=1;" vertex="1" parent="1">
          <mxGeometry x="-40" y="550" width="120" height="60" as="geometry" />
        </mxCell>
        <mxCell id="oF5099-Gfeb-WDHTuqHn-44" value="" style="edgeStyle=none;curved=1;rounded=0;orthogonalLoop=1;jettySize=auto;html=1;fontSize=12;startSize=8;endSize=8;" edge="1" parent="1" source="oF5099-Gfeb-WDHTuqHn-4" target="oF5099-Gfeb-WDHTuqHn-43">
          <mxGeometry relative="1" as="geometry" />
        </mxCell>
        <mxCell id="oF5099-Gfeb-WDHTuqHn-46" value="" style="edgeStyle=none;curved=1;rounded=0;orthogonalLoop=1;jettySize=auto;html=1;fontSize=12;startSize=8;endSize=8;" edge="1" parent="1" source="oF5099-Gfeb-WDHTuqHn-4" target="oF5099-Gfeb-WDHTuqHn-45">
          <mxGeometry relative="1" as="geometry" />
        </mxCell>
        <mxCell id="oF5099-Gfeb-WDHTuqHn-47" value="" style="edgeStyle=none;curved=1;rounded=0;orthogonalLoop=1;jettySize=auto;html=1;fontSize=12;startSize=8;endSize=8;" edge="1" parent="1" source="oF5099-Gfeb-WDHTuqHn-4" target="oF5099-Gfeb-WDHTuqHn-45">
          <mxGeometry relative="1" as="geometry" />
        </mxCell>
        <mxCell id="oF5099-Gfeb-WDHTuqHn-49" value="" style="edgeStyle=none;curved=1;rounded=0;orthogonalLoop=1;jettySize=auto;html=1;fontSize=12;startSize=8;endSize=8;" edge="1" parent="1" source="oF5099-Gfeb-WDHTuqHn-4" target="oF5099-Gfeb-WDHTuqHn-48">
          <mxGeometry relative="1" as="geometry" />
        </mxCell>
        <mxCell id="oF5099-Gfeb-WDHTuqHn-4" value="Rtype server" style="rounded=1;whiteSpace=wrap;html=1;" vertex="1" parent="1">
          <mxGeometry x="-40" y="1020" width="120" height="60" as="geometry" />
        </mxCell>
        <mxCell id="oF5099-Gfeb-WDHTuqHn-59" value="" style="edgeStyle=none;curved=1;rounded=0;orthogonalLoop=1;jettySize=auto;html=1;fontSize=12;startSize=8;endSize=8;" edge="1" parent="1" source="oF5099-Gfeb-WDHTuqHn-5" target="oF5099-Gfeb-WDHTuqHn-58">
          <mxGeometry relative="1" as="geometry" />
        </mxCell>
        <mxCell id="oF5099-Gfeb-WDHTuqHn-5" value="Scripts" style="rounded=1;whiteSpace=wrap;html=1;" vertex="1" parent="1">
          <mxGeometry x="-200" y="1480" width="120" height="60" as="geometry" />
        </mxCell>
        <mxCell id="oF5099-Gfeb-WDHTuqHn-57" value="" style="edgeStyle=none;curved=1;rounded=0;orthogonalLoop=1;jettySize=auto;html=1;fontSize=12;startSize=8;endSize=8;" edge="1" parent="1" source="oF5099-Gfeb-WDHTuqHn-6" target="oF5099-Gfeb-WDHTuqHn-56">
          <mxGeometry relative="1" as="geometry" />
        </mxCell>
        <mxCell id="oF5099-Gfeb-WDHTuqHn-6" value="Documentation" style="rounded=1;whiteSpace=wrap;html=1;" vertex="1" parent="1">
          <mxGeometry x="172.5" y="1480" width="120" height="60" as="geometry" />
        </mxCell>
        <mxCell id="oF5099-Gfeb-WDHTuqHn-14" value="" style="edgeStyle=none;curved=1;rounded=0;orthogonalLoop=1;jettySize=auto;html=1;fontSize=12;startSize=8;endSize=8;" edge="1" parent="1" source="oF5099-Gfeb-WDHTuqHn-7" target="oF5099-Gfeb-WDHTuqHn-13">
          <mxGeometry relative="1" as="geometry" />
        </mxCell>
        <mxCell id="oF5099-Gfeb-WDHTuqHn-7" value="Core" style="whiteSpace=wrap;html=1;rounded=1;" vertex="1" parent="1">
          <mxGeometry x="-260" y="-280" width="120" height="60" as="geometry" />
        </mxCell>
        <mxCell id="oF5099-Gfeb-WDHTuqHn-16" value="" style="edgeStyle=none;curved=1;rounded=0;orthogonalLoop=1;jettySize=auto;html=1;fontSize=12;startSize=8;endSize=8;" edge="1" parent="1" source="oF5099-Gfeb-WDHTuqHn-9" target="oF5099-Gfeb-WDHTuqHn-15">
          <mxGeometry relative="1" as="geometry" />
        </mxCell>
        <mxCell id="oF5099-Gfeb-WDHTuqHn-9" value="ECS" style="whiteSpace=wrap;html=1;rounded=1;" vertex="1" parent="1">
          <mxGeometry x="-40" y="-280" width="120" height="60" as="geometry" />
        </mxCell>
        <mxCell id="oF5099-Gfeb-WDHTuqHn-18" value="" style="edgeStyle=none;curved=1;rounded=0;orthogonalLoop=1;jettySize=auto;html=1;fontSize=12;startSize=8;endSize=8;" edge="1" parent="1" source="oF5099-Gfeb-WDHTuqHn-11" target="oF5099-Gfeb-WDHTuqHn-17">
          <mxGeometry relative="1" as="geometry" />
        </mxCell>
        <mxCell id="oF5099-Gfeb-WDHTuqHn-11" value="Media" style="whiteSpace=wrap;html=1;rounded=1;" vertex="1" parent="1">
          <mxGeometry x="180" y="-280" width="120" height="60" as="geometry" />
        </mxCell>
        <mxCell id="oF5099-Gfeb-WDHTuqHn-13" value="Core functionality like the Clock, SFML Window, View (camera)" style="whiteSpace=wrap;html=1;rounded=1;" vertex="1" parent="1">
          <mxGeometry x="-285" y="-190" width="170" height="80" as="geometry" />
        </mxCell>
        <mxCell id="oF5099-Gfeb-WDHTuqHn-15" value="Entity Component System : Manages game objects, entities, and behaviors" style="whiteSpace=wrap;html=1;rounded=1;" vertex="1" parent="1">
          <mxGeometry x="-60" y="-190" width="160" height="80" as="geometry" />
        </mxCell>
        <mxCell id="oF5099-Gfeb-WDHTuqHn-17" value="Handles sound" style="whiteSpace=wrap;html=1;rounded=1;" vertex="1" parent="1">
          <mxGeometry x="180" y="-190" width="130" height="80" as="geometry" />
        </mxCell>
        <mxCell id="oF5099-Gfeb-WDHTuqHn-26" value="" style="edgeStyle=none;curved=1;rounded=0;orthogonalLoop=1;jettySize=auto;html=1;fontSize=12;startSize=8;endSize=8;" edge="1" parent="1" source="oF5099-Gfeb-WDHTuqHn-19" target="oF5099-Gfeb-WDHTuqHn-25">
          <mxGeometry relative="1" as="geometry" />
        </mxCell>
        <mxCell id="oF5099-Gfeb-WDHTuqHn-19" value="Client" style="whiteSpace=wrap;html=1;rounded=1;" vertex="1" parent="1">
          <mxGeometry x="-270" y="190" width="120" height="60" as="geometry" />
        </mxCell>
        <mxCell id="oF5099-Gfeb-WDHTuqHn-28" value="" style="edgeStyle=none;curved=1;rounded=0;orthogonalLoop=1;jettySize=auto;html=1;fontSize=12;startSize=8;endSize=8;" edge="1" parent="1" source="oF5099-Gfeb-WDHTuqHn-21" target="oF5099-Gfeb-WDHTuqHn-27">
          <mxGeometry relative="1" as="geometry" />
        </mxCell>
        <mxCell id="oF5099-Gfeb-WDHTuqHn-21" value="Server" style="whiteSpace=wrap;html=1;rounded=1;" vertex="1" parent="1">
          <mxGeometry x="-40" y="190" width="120" height="60" as="geometry" />
        </mxCell>
        <mxCell id="oF5099-Gfeb-WDHTuqHn-30" value="" style="edgeStyle=none;curved=1;rounded=0;orthogonalLoop=1;jettySize=auto;html=1;fontSize=12;startSize=8;endSize=8;" edge="1" parent="1" source="oF5099-Gfeb-WDHTuqHn-23" target="oF5099-Gfeb-WDHTuqHn-29">
          <mxGeometry relative="1" as="geometry" />
        </mxCell>
        <mxCell id="oF5099-Gfeb-WDHTuqHn-23" value="Shared" style="whiteSpace=wrap;html=1;rounded=1;" vertex="1" parent="1">
          <mxGeometry x="190" y="190" width="120" height="60" as="geometry" />
        </mxCell>
        <mxCell id="oF5099-Gfeb-WDHTuqHn-25" value="Contains the TCP and UDP client for the Network&lt;div&gt;&lt;br&gt;&lt;/div&gt;&lt;div&gt;create / send / get last messages&lt;/div&gt;&lt;div&gt;&lt;br&gt;&lt;/div&gt;" style="whiteSpace=wrap;html=1;rounded=1;" vertex="1" parent="1">
          <mxGeometry x="-285" y="290" width="150" height="100" as="geometry" />
        </mxCell>
        <mxCell id="oF5099-Gfeb-WDHTuqHn-27" value="Contains the TCP and UDP server for the Network&lt;div&gt;&lt;br&gt;&lt;/div&gt;&lt;div&gt;create / manage / send messages&lt;/div&gt;" style="whiteSpace=wrap;html=1;rounded=1;" vertex="1" parent="1">
          <mxGeometry x="-55" y="300" width="150" height="90" as="geometry" />
        </mxCell>
        <mxCell id="oF5099-Gfeb-WDHTuqHn-29" value="All the ressources Shared across different part of the project, like the PacketManager" style="whiteSpace=wrap;html=1;rounded=1;" vertex="1" parent="1">
          <mxGeometry x="172.5" y="300" width="155" height="90" as="geometry" />
        </mxCell>
        <mxCell id="oF5099-Gfeb-WDHTuqHn-42" value="" style="edgeStyle=none;curved=1;rounded=0;orthogonalLoop=1;jettySize=auto;html=1;fontSize=12;startSize=8;endSize=8;" edge="1" parent="1" source="oF5099-Gfeb-WDHTuqHn-31" target="oF5099-Gfeb-WDHTuqHn-41">
          <mxGeometry relative="1" as="geometry" />
        </mxCell>
        <mxCell id="oF5099-Gfeb-WDHTuqHn-31" value="Engine" style="whiteSpace=wrap;html=1;rounded=1;" vertex="1" parent="1">
          <mxGeometry x="-260" y="700" width="120" height="60" as="geometry" />
        </mxCell>
        <mxCell id="oF5099-Gfeb-WDHTuqHn-40" value="" style="edgeStyle=none;curved=1;rounded=0;orthogonalLoop=1;jettySize=auto;html=1;fontSize=12;startSize=8;endSize=8;" edge="1" parent="1" source="oF5099-Gfeb-WDHTuqHn-33" target="oF5099-Gfeb-WDHTuqHn-39">
          <mxGeometry relative="1" as="geometry" />
        </mxCell>
        <mxCell id="oF5099-Gfeb-WDHTuqHn-33" value="Game" style="whiteSpace=wrap;html=1;rounded=1;" vertex="1" parent="1">
          <mxGeometry x="-40" y="700" width="120" height="60" as="geometry" />
        </mxCell>
        <mxCell id="oF5099-Gfeb-WDHTuqHn-38" value="" style="edgeStyle=none;curved=1;rounded=0;orthogonalLoop=1;jettySize=auto;html=1;fontSize=12;startSize=8;endSize=8;" edge="1" parent="1" source="oF5099-Gfeb-WDHTuqHn-35" target="oF5099-Gfeb-WDHTuqHn-37">
          <mxGeometry relative="1" as="geometry" />
        </mxCell>
        <mxCell id="oF5099-Gfeb-WDHTuqHn-35" value="Controls" style="whiteSpace=wrap;html=1;rounded=1;" vertex="1" parent="1">
          <mxGeometry x="200" y="700" width="120" height="60" as="geometry" />
        </mxCell>
        <mxCell id="oF5099-Gfeb-WDHTuqHn-37" value="Manage the inputs" style="whiteSpace=wrap;html=1;rounded=1;" vertex="1" parent="1">
          <mxGeometry x="200" y="820" width="120" height="60" as="geometry" />
        </mxCell>
        <mxCell id="oF5099-Gfeb-WDHTuqHn-39" value="Game loop, entities" style="whiteSpace=wrap;html=1;rounded=1;" vertex="1" parent="1">
          <mxGeometry x="-40" y="820" width="120" height="60" as="geometry" />
        </mxCell>
        <mxCell id="oF5099-Gfeb-WDHTuqHn-41" value="Contains all the includes for the header files" style="whiteSpace=wrap;html=1;rounded=1;" vertex="1" parent="1">
          <mxGeometry x="-260" y="820" width="120" height="60" as="geometry" />
        </mxCell>
        <mxCell id="oF5099-Gfeb-WDHTuqHn-55" value="" style="edgeStyle=none;curved=1;rounded=0;orthogonalLoop=1;jettySize=auto;html=1;fontSize=12;startSize=8;endSize=8;" edge="1" parent="1" source="oF5099-Gfeb-WDHTuqHn-43" target="oF5099-Gfeb-WDHTuqHn-54">
          <mxGeometry relative="1" as="geometry" />
        </mxCell>
        <mxCell id="oF5099-Gfeb-WDHTuqHn-43" value="Config" style="whiteSpace=wrap;html=1;rounded=1;" vertex="1" parent="1">
          <mxGeometry x="-270" y="1150" width="120" height="60" as="geometry" />
        </mxCell>
        <mxCell id="oF5099-Gfeb-WDHTuqHn-53" value="" style="edgeStyle=none;curved=1;rounded=0;orthogonalLoop=1;jettySize=auto;html=1;fontSize=12;startSize=8;endSize=8;" edge="1" parent="1" source="oF5099-Gfeb-WDHTuqHn-45" target="oF5099-Gfeb-WDHTuqHn-52">
          <mxGeometry relative="1" as="geometry" />
        </mxCell>
        <mxCell id="oF5099-Gfeb-WDHTuqHn-45" value="Game" style="whiteSpace=wrap;html=1;rounded=1;" vertex="1" parent="1">
          <mxGeometry x="-40" y="1150" width="120" height="60" as="geometry" />
        </mxCell>
        <mxCell id="oF5099-Gfeb-WDHTuqHn-51" value="" style="edgeStyle=none;curved=1;rounded=0;orthogonalLoop=1;jettySize=auto;html=1;fontSize=12;startSize=8;endSize=8;" edge="1" parent="1" source="oF5099-Gfeb-WDHTuqHn-48" target="oF5099-Gfeb-WDHTuqHn-50">
          <mxGeometry relative="1" as="geometry" />
        </mxCell>
        <mxCell id="oF5099-Gfeb-WDHTuqHn-48" value="RtypeServer" style="whiteSpace=wrap;html=1;rounded=1;" vertex="1" parent="1">
          <mxGeometry x="180" y="1150" width="120" height="60" as="geometry" />
        </mxCell>
        <mxCell id="oF5099-Gfeb-WDHTuqHn-50" value="Manages events, game instance, simulation" style="whiteSpace=wrap;html=1;rounded=1;" vertex="1" parent="1">
          <mxGeometry x="180" y="1270" width="120" height="60" as="geometry" />
        </mxCell>
        <mxCell id="oF5099-Gfeb-WDHTuqHn-52" value="Game instance, adding/getting entities, moving the player," style="whiteSpace=wrap;html=1;rounded=1;" vertex="1" parent="1">
          <mxGeometry x="-40" y="1270" width="120" height="60" as="geometry" />
        </mxCell>
        <mxCell id="oF5099-Gfeb-WDHTuqHn-54" value="Manages the server config (server_tick, broadcast tick..)" style="whiteSpace=wrap;html=1;rounded=1;" vertex="1" parent="1">
          <mxGeometry x="-270" y="1270" width="120" height="60" as="geometry" />
        </mxCell>
        <mxCell id="oF5099-Gfeb-WDHTuqHn-56" value="Documentation about the project, can be found online using the link inside index.md (github pages)" style="whiteSpace=wrap;html=1;rounded=1;" vertex="1" parent="1">
          <mxGeometry x="151.88" y="1600" width="161.25" height="80" as="geometry" />
        </mxCell>
        <mxCell id="oF5099-Gfeb-WDHTuqHn-58" value="Contains installation Scripts for the project" style="whiteSpace=wrap;html=1;rounded=1;" vertex="1" parent="1">
          <mxGeometry x="-227.5" y="1600" width="175" height="70" as="geometry" />
        </mxCell>
      </root>
    </mxGraphModel>
  </diagram>
</mxfile>
